<?xml version="1.0" encoding="UTF-8" standalone="no"?>
<svg
   viewBox="0 0 886 187"
   version="1.1"
   id="svg381"
   sodipodi:docname="logo_bolt-text-white.svg"
   inkscape:version="1.2-alpha1 (b6a15bbbed, 2022-02-23)"
   xmlns:inkscape="http://www.inkscape.org/namespaces/inkscape"
   xmlns:sodipodi="http://sodipodi.sourceforge.net/DTD/sodipodi-0.dtd"
   xmlns="http://www.w3.org/2000/svg"
   xmlns:svg="http://www.w3.org/2000/svg">
  <defs
     id="defs385" />
  <sodipodi:namedview
     id="namedview383"
     pagecolor="#ffffff"
     bordercolor="#cccccc"
     borderopacity="1"
     inkscape:pageshadow="0"
     inkscape:pageopacity="1"
     inkscape:pagecheckerboard="0"
     inkscape:deskcolor="#d1d1d1"
     showgrid="false"
     inkscape:zoom="1.3656885"
     inkscape:cx="414.44297"
     inkscape:cy="94.45785"
     inkscape:window-width="1920"
     inkscape:window-height="1017"
     inkscape:window-x="-8"
     inkscape:window-y="-8"
     inkscape:window-maximized="1"
     inkscape:current-layer="g1052" />
  <g
     id="g1052"
     transform="translate(-321.20711,-113.72203)">
    <g
       id="g245047"
       transform="matrix(1.7613379,0,0,1.7613379,396.97437,114.33145)">
      <path
         style="fill:#ffffff;stroke:none;stroke-width:0.264583px;stroke-linecap:butt;stroke-linejoin:miter;stroke-opacity:1"
         d="m -1.5094205,1.641129 h 6.879163 l -26.3911145,52.69355 h -6.87916 z"
         id="path199269" />
      <path
         style="fill:#fb9706;fill-opacity:1;stroke:none;stroke-width:0.264583px;stroke-linecap:butt;stroke-linejoin:miter;stroke-opacity:1"
         d="m 19.74165,36.592742 h 8.466664 l -56.463689,67.243428 8.307983,-19.911126 z"
         id="path199265" />
      <path
         style="fill:#fddb07;fill-opacity:1;stroke:none;stroke-width:0.264583px;stroke-linecap:butt;stroke-linejoin:miter;stroke-opacity:1"
         d="M 5.3697465,1.641129 H 26.301061 L 4.655904,36.592742 h 15.08575 L -19.947387,83.925046 -7.674739,54.512098 -21.02137,54.334679 Z"
         id="path199267" />
      <path
         style="fill:none;fill-opacity:1;stroke:#000000;stroke-width:2.64583;stroke-linecap:butt;stroke-linejoin:round;stroke-miterlimit:4;stroke-dasharray:none;stroke-opacity:1"
         d="M -1.5094175,1.641129 H 26.30106 L 4.655904,36.592742 H 28.208317 L -28.255372,103.83617 -7.67474,54.512096 -27.900534,54.334677 Z"
         id="path175934" />
    </g>
    <g
       aria-label="Volt"
       id="text249624"
       style="font-size:180.085px;line-height:1.25;font-family:Anton;-inkscape-font-specification:Anton;letter-spacing:0px;word-spacing:0px;fill:#f1f3f5;stroke-width:8.4415">
      <path
         d="m 544.51562,222.82997 13.45362,-67.79567 q 0.17587,-0.87932 0.17587,-1.84658 0,-3.51728 -4.48454,-5.62765 -2.81383,-1.40692 -2.81383,-2.7259 0,-0.61553 0.0879,-1.23105 v -1.40691 q 0,-3.95695 0.35173,-4.9242 0.43966,-1.05519 2.1983,-1.05519 h 21.80717 q 1.49485,0 1.75864,0.87932 0.35173,0.79139 0.35173,4.30868 0,4.13281 -0.17586,5.10006 -0.17587,0.96725 -1.23105,1.58278 -2.63797,1.75864 -3.34142,3.07762 -0.70346,1.23105 -1.75865,6.41905 l -22.86235,114.22384 -1.40691,6.94664 q -0.17587,0.96725 -1.84658,0.96725 h -17.67436 q -1.14312,0 -1.75864,-1.05518 -0.61553,-1.05519 -1.75864,-6.85871 L 500.63749,155.0343 q -0.79139,-4.39661 -4.22074,-6.41905 -1.75864,-1.05518 -2.19831,-1.58278 -0.35172,-0.61552 -0.35172,-2.4621 0,-0.61552 0.0879,-1.23105 0.0879,-0.96725 0.0879,-1.84657 0,-0.61553 -0.0879,-1.14312 v -1.23105 q 0,-2.90176 2.11037,-2.90176 h 39.92119 q 2.02244,0 2.02244,3.69315 0,0.0879 -0.17587,5.10006 -0.17586,1.14312 -1.84657,1.93451 -3.86902,1.84658 -3.86902,5.89145 0,0.96726 0.2638,2.19831 z"
         style="font-family:'Bernard MT Condensed';-inkscape-font-specification:'Bernard MT Condensed, '"
         id="path965" />
      <path
         d="m 614.33373,156.79294 q 16.53124,0 27.61069,14.86053 11.07945,14.7726 11.07945,43.96607 0,31.4797 -11.25531,47.65921 -11.25532,16.09158 -28.05035,16.09158 -11.60705,0 -20.13646,-7.3863 -8.52942,-7.3863 -13.18982,-19.69679 -4.57247,-12.3105 -4.57247,-33.67801 0,-30.51245 10.55185,-46.16437 10.63979,-15.65192 27.96242,-15.65192 z m 6.33111,22.07096 q 0,-10.90358 -6.33111,-10.90358 -6.85871,0 -6.85871,13.36568 v 73.07161 q 0,13.27775 6.24319,13.27775 6.94663,0 6.94663,-13.27775 z"
         style="font-family:'Bernard MT Condensed';-inkscape-font-specification:'Bernard MT Condensed, '"
         id="path967" />
      <path
         d="m 661.46535,143.42726 v -4.39661 q 0,-2.81383 3.69315,-2.81383 h 27.17103 q 2.19831,0 2.90176,0.35173 0.70346,0.35173 0.70346,2.98969 v 122.84119 q 0,4.04488 2.63796,5.01213 1.84658,0.70346 1.84658,2.98969 v 5.01214 q 0,2.72589 -3.95695,2.72589 h -32.27109 q -2.7259,0 -2.7259,-2.72589 v -5.01214 q 0,-3.07762 2.7259,-4.57247 1.75864,-0.87932 2.1983,-1.58277 0.43966,-0.79139 0.43966,-2.90177 V 152.39633 q 0,-3.07762 -2.37416,-4.13281 -2.9897,-1.49484 -2.9897,-4.83626 z"
         style="font-family:'Bernard MT Condensed';-inkscape-font-specification:'Bernard MT Condensed, '"
         id="path969" />
      <path
         d="m 712.81772,170.07069 h -3.42935 q -1.49485,0 -1.93451,-0.35173 -0.35173,-0.35173 -0.35173,-1.9345 v -6.33112 q 0,-1.75864 0.35173,-2.28623 0.43966,-0.5276 2.37417,-0.79139 6.33111,-0.96726 12.75016,-7.03457 6.41904,-6.06732 7.65009,-13.01396 0.43966,-2.4621 1.05519,-2.98969 0.70346,-0.61553 2.72589,-0.61553 h 5.71559 q 2.28624,0 2.28624,3.07763 v 20.22439 h 5.45179 q 3.07763,0 3.07763,2.90176 v 6.33111 q 0,2.81383 -3.07763,2.81383 h -5.45179 v 91.09769 q 0,4.6604 4.13281,6.68284 2.02244,0.96726 2.63796,2.37417 0.61553,1.40691 0.61553,5.10006 0,2.28624 -0.35173,2.55004 -0.2638,0.26379 -2.11037,0.26379 h -27.78656 q -6.33111,-5.62765 -6.33111,-16.9709 z"
         style="font-family:'Bernard MT Condensed';-inkscape-font-specification:'Bernard MT Condensed, '"
         id="path971" />
    </g>
  </g>
</svg>
